<svg xmlns="http://www.w3.org/2000/svg" viewBox="0 0 35.127 42.587">
  <defs>
    <style>
      .cls-1 {
        fill: #efefef;
      }

      .cls-2 {
        fill: none;
        stroke: #efefef;
        stroke-miterlimit: 10;
        stroke-width: 0.25px;
      }
    </style>
  </defs>
  <g id="duaTO8.tif" transform="translate(-750.379 -2043.79)">
    <g id="Group_13" data-name="Group 13" transform="translate(750.379 2043.79)">
      <path id="Path_26" data-name="Path 26" class="cls-1" d="M768,2086.377v-7.229a46.7,46.7,0,0,1-5.148-1.021,17.087,17.087,0,0,1-11.591-11.473,17.544,17.544,0,1,1,34.222-4.228,16.688,16.688,0,0,1-4.65,10.869c-3.971,4.179-8.034,8.27-12.061,12.4C768.58,2085.885,768.365,2086.051,768,2086.377Zm2.835-7.583c2.243-2.058,4.59-4.182,6.9-6.341,4.376-4.084,5.786-9.082,4.555-14.894a6.805,6.805,0,0,0-7.581-5.393,6.542,6.542,0,0,0-5.758,6.859,7.285,7.285,0,0,0,1.31,4.177,31.946,31.946,0,0,1-2.264,2.474,28.57,28.57,0,0,1-2.445-2.474,7.068,7.068,0,0,0,.582-7.746,6.768,6.768,0,0,0-12.483,2.01,15.051,15.051,0,0,0,.655,9.421,14.309,14.309,0,0,0,11.8,9.082c1.523.22,3.08.21,4.726.313Z" transform="translate(-750.379 -2043.79)"/>
      <path id="Path_27" data-name="Path 27" class="cls-1" d="M1184.909,2279.237h3.625v-3.586a3.443,3.443,0,0,1,3.711,3.208,3.717,3.717,0,0,1-3.216,4C1186.849,2283.111,1185.181,2281.712,1184.909,2279.237Z" transform="translate(-1163.316 -2264.119)"/>
      <path id="Path_28" data-name="Path 28" class="cls-1" d="M877.192,2278.832h3.572v-3.545c1.626-.475,3.594,1.28,3.716,3.155a3.66,3.66,0,0,1-3.324,4.033A3.619,3.619,0,0,1,877.192,2278.832Z" transform="translate(-870.89 -2263.708)"/>
      <circle id="Ellipse_15" data-name="Ellipse 15" class="cls-2" cx="4.22" cy="4.22" r="4.22" transform="translate(5.698 10.879)"/>
      <circle id="Ellipse_16" data-name="Ellipse 16" class="cls-2" cx="4.22" cy="4.22" r="4.22" transform="translate(21.047 10.879)"/>
    </g>
  </g>
</svg>
